<svg width="501" height="499" viewBox="0 0 501 499" fill="none" xmlns="http://www.w3.org/2000/svg">
<path d="M0 43.6039C0 19.5221 19.5048 0 43.5652 0H457.435C481.495 0 501 19.5221 501 43.6039V455.396C501 479.478 481.495 499 457.435 499H43.5652C19.5048 499 0 479.478 0 455.396V43.6039Z" fill="#A9BBC9"/>
<path fill-rule="evenodd" clip-rule="evenodd" d="M261.038 190.077L299.488 230.519C305.553 236.897 305.553 247.243 299.488 253.63C293.415 260.008 283.586 260.008 277.513 253.63L265.366 240.848V298.979C265.366 307.94 258.454 315.207 249.935 315.207C241.406 315.207 234.495 307.94 234.495 298.979V241.104L222.588 253.63C216.523 260.008 206.686 260.008 200.621 253.63C194.548 247.243 194.548 236.897 200.621 230.519L239.063 190.077C245.127 183.699 254.973 183.699 261.038 190.077Z" fill="white"/>
</svg>